<?xml version="1.0" encoding="utf-8"?>
<!-- Generator: Adobe Illustrator 19.2.0, SVG Export Plug-In . SVG Version: 6.00 Build 0)  -->
<svg version="1.1" xmlns="http://www.w3.org/2000/svg" xmlns:xlink="http://www.w3.org/1999/xlink" x="0px" y="0px"
	 viewBox="0 0 438 170.7" style="enable-background:new 0 0 438 170.7;" xml:space="preserve">
<style type="text/css">
	.st0{fill:#4690AF;}
	.st1{fill:#F4EEB6;}
	.st2{fill:#ABD4EF;}
	.st3{fill:#9ED7CC;}
	.st4{fill:#FDD7A8;}
</style>
<g id="Слой_2">
	<g>
		<g transform="translate(0.000000,512.000000) scale(0.100000,-0.100000)">
			<path class="st0" d="M3584.4,5079.8c0.1-21.8,1.3-47.1,2.8-56.3c4.5-28.8,21.1-50.5,51.3-67.4l15.8-8.7l-65.5-336.5l-65.5-336.2
				l-107.4,20.7l-107.2,20.8l-29.6-154.4c-32.7-170.6-32.2-163.7-19.1-203.9c9.7-29.8,20.6-50.3,48.9-91.7
				c32.7-48.4,68.1-90,114.4-134.6l12.4-11.7l22,8.3c108.5,41.4,190.1,93.7,231.8,148.7c22.1,29,22.3,29.9,54.8,195.9l30,154.1
				l-105.8,19.9l-105.9,20.1l65,336.4l65.2,336.6l14.1,0.7c22.2,1.2,37.2,6.3,56.7,19.5c16.1,10.9,17.5,12.3,25.9,27.4
				c9.4,17.3,37.5,83.5,36.1,85.7c-1,1.4-239,47.9-240.4,46.9C3584.7,5119.6,3584.4,5101.5,3584.4,5079.8z M3698.9,5059.8l73.7-14.4
				l-2.2-6.4c-1.2-3.7-6.1-14.5-10.9-24.4c-8.2-16.8-9.5-18.4-19.9-24.7c-14.8-8.7-38.4-12.4-56.7-8.8
				c-17.4,3.4-37.7,15.2-48.3,28.2c-6.5,8.1-8,11.5-9,21.8c-1.5,15.4-2.4,41.4-1.2,42.3C3625,5073.8,3658.4,5067.7,3698.9,5059.8z
				 M3495.5,4130.4l-20.7-106.6l19.5-3.8l19.5-3.8l20.7,106.6l20.7,106.6l85.6-16.6c47.1-9.1,86-17.6,86.5-18.8
				c0.4-1.3-11-61.4-25.4-133.5c-28.5-142.9-28.8-143.6-51.6-169.8c-19.3-22.4-35.5-35.5-76.4-61.5c-21.2-13.5-47.3-28.8-58.3-33.9
				c-36.5-17.1-65.1-28.8-69.1-28.7c-4.4,0.4-28.6,25-61,62.4c-27.5,31.5-67.6,90.8-79.2,117.2c-10.1,22.7-14.9,39.5-16.2,55.6
				c-0.6,7.1,8.5,59.2,24.7,140.1l25.7,128.8l87.8-16.9l87.7-17L3495.5,4130.4z"/>
		</g>
	</g>
</g>
<g id="Слой_1">
	<path class="st1" d="M218.8,170.4L218.8,170.4c-3.6,0-6.5-2.9-6.5-6.5v0c0-3.6,2.9-6.5,6.5-6.5h0c3.6,0,6.5,2.9,6.5,6.5v0
		C225.3,167.5,222.4,170.4,218.8,170.4z"/>
	<path class="st2" d="M236.5,170.4L236.5,170.4c-6.6,0-12-5.4-12-12v0c0-6.6,5.4-12,12-12h0c6.6,0,12,5.4,12,12v0
		C248.5,165,243.1,170.4,236.5,170.4z"/>
	<path class="st2" d="M284.7,125.9L284.7,125.9c-8.6,0-15.7-7.1-15.7-15.7v0c0-8.6,7.1-15.7,15.7-15.7h0c8.6,0,15.7,7.1,15.7,15.7v0
		C300.3,118.9,293.3,125.9,284.7,125.9z"/>
	<path class="st2" d="M203.7,143.2L203.7,143.2c-5.1,0-9.2-4.1-9.2-9.2v0c0-5.1,4.1-9.2,9.2-9.2h0c5.1,0,9.2,4.1,9.2,9.2v0
		C212.9,139.1,208.7,143.2,203.7,143.2z"/>
	<path class="st3" d="M217.4,157.5L217.4,157.5c-5.5,0-10-4.5-10-10v0c0-5.5,4.5-10,10-10h0c5.5,0,10,4.5,10,10v0
		C227.4,153,222.9,157.5,217.4,157.5z"/>
	<path class="st1" d="M254.2,170.4L254.2,170.4c-3.6,0-6.5-2.9-6.5-6.5v0c0-3.6,2.9-6.5,6.5-6.5h0c3.6,0,6.5,2.9,6.5,6.5v0
		C260.7,167.5,257.8,170.4,254.2,170.4z"/>
	<path class="st2" d="M185.4,159.3L185.4,159.3c-1.7,0-3.2-1.4-3.2-3.2l0,0c0-1.7,1.4-3.2,3.2-3.2l0,0c1.7,0,3.2,1.4,3.2,3.2l0,0
		C188.5,157.9,187.1,159.3,185.4,159.3z"/>
	<path class="st2" d="M181.9,153.9L181.9,153.9c-1.9,0-3.4-1.5-3.4-3.4v0c0-1.9,1.5-3.4,3.4-3.4h0c1.9,0,3.4,1.5,3.4,3.4v0
		C185.3,152.4,183.8,153.9,181.9,153.9z"/>
	<path class="st2" d="M174.8,131.6L174.8,131.6c-2.1,0-3.9-1.7-3.9-3.9v0c0-2.1,1.7-3.9,3.9-3.9l0,0c2.1,0,3.9,1.7,3.9,3.9v0
		C178.7,129.8,177,131.6,174.8,131.6z"/>
	<path class="st4" d="M184.7,147.5L184.7,147.5c-5.5,0-10-4.5-10-10v0c0-5.5,4.5-10,10-10h0c5.5,0,10,4.5,10,10v0
		C194.7,143,190.2,147.5,184.7,147.5z"/>
	<path class="st4" d="M218.3,136L218.3,136c-3.3,0-6-2.7-6-6l0,0c0-3.3,2.7-6,6-6l0,0c3.3,0,6,2.7,6,6l0,0
		C224.3,133.2,221.6,136,218.3,136z"/>
	<path class="st3" d="M188,170.4L188,170.4c-3.2,0-5.7-2.6-5.7-5.7v0c0-3.2,2.6-5.7,5.7-5.7l0,0c3.2,0,5.7,2.6,5.7,5.7v0
		C193.8,167.8,191.2,170.4,188,170.4z"/>
	<path class="st3" d="M207,170.4L207,170.4c-3,0-5.4-2.4-5.4-5.4v0c0-3,2.4-5.4,5.4-5.4l0,0c3,0,5.4,2.4,5.4,5.4v0
		C212.4,168,209.9,170.4,207,170.4z"/>
	<path class="st2" d="M118.9,170.3L118.9,170.3c-5.5,0-10-4.5-10-10v0c0-5.5,4.5-10,10-10h0c5.5,0,10,4.5,10,10v0
		C128.9,165.8,124.4,170.3,118.9,170.3z"/>
	<path class="st2" d="M76.9,147.9L76.9,147.9c-5.5,0-10-4.5-10-10v0c0-5.5,4.5-10,10-10h0c5.5,0,10,4.5,10,10v0
		C86.9,143.4,82.4,147.9,76.9,147.9z"/>
	<path class="st1" d="M234.8,146.5L234.8,146.5c-6.2,0-11.3-5.1-11.3-11.3v0c0-6.2,5.1-11.3,11.3-11.3h0c6.2,0,11.3,5.1,11.3,11.3v0
		C246.1,141.4,241,146.5,234.8,146.5z"/>
	<path class="st1" d="M198,162.4L198,162.4c-5.5,0-10-4.5-10-10v0c0-5.5,4.5-10,10-10h0c5.5,0,10,4.5,10,10v0
		C208,157.9,203.5,162.4,198,162.4z"/>
	<path class="st1" d="M310.8,124.1L310.8,124.1c-5.8,0-10.6-4.8-10.6-10.6v0c0-5.8,4.8-10.6,10.6-10.6h0c5.8,0,10.6,4.8,10.6,10.6v0
		C321.4,119.3,316.6,124.1,310.8,124.1z"/>
	<path class="st1" d="M261.2,138.3L261.2,138.3c-2.8,0-5.1-2.3-5.1-5.1l0,0c0-2.8,2.3-5.1,5.1-5.1l0,0c2.8,0,5.1,2.3,5.1,5.1l0,0
		C266.3,136,264,138.3,261.2,138.3z"/>
	<path class="st1" d="M251,137.9L251,137.9c-2.8,0-5.1-2.3-5.1-5.1v0c0-2.8,2.3-5.1,5.1-5.1h0c2.8,0,5.1,2.3,5.1,5.1v0
		C256.1,135.6,253.8,137.9,251,137.9z"/>
	<path class="st3" d="M255.5,157.2L255.5,157.2c-5.5,0-10-4.5-10-10v0c0-5.5,4.5-10,10-10h0c5.5,0,10,4.5,10,10v0
		C265.5,152.7,261,157.2,255.5,157.2z"/>
	<path class="st3" d="M256.8,128.8L256.8,128.8c-5.5,0-10-4.5-10-10v0c0-5.5,4.5-10,10-10h0c5.5,0,10,4.5,10,10v0
		C266.8,124.3,262.3,128.8,256.8,128.8z"/>
	<path class="st3" d="M286.2,170.3L286.2,170.3c-2.7,0.6-5.4-1-6-3.7l0,0c-0.6-2.7,1-5.4,3.7-6l0,0c2.7-0.6,5.4,1,6,3.7v0
		C290.6,167,288.9,169.7,286.2,170.3z"/>
	<path class="st2" d="M270.4,170.4L270.4,170.4c-5.5,0-10-4.5-10-10v0c0-5.5,4.5-10,10-10l0,0c5.5,0,10,4.5,10,10v0
		C280.4,165.9,275.9,170.4,270.4,170.4z"/>
	<path class="st2" d="M274.7,140.8L274.7,140.8c-4.7,0-8.5-3.8-8.5-8.5v0c0-4.7,3.8-8.5,8.5-8.5l0,0c4.7,0,8.5,3.8,8.5,8.5v0
		C283.2,137,279.4,140.8,274.7,140.8z"/>
	<path class="st2" d="M140.7,170.2L140.7,170.2c-6.5,0-11.8-5.3-11.8-11.8v0c0-6.5,5.3-11.8,11.8-11.8h0c6.5,0,11.8,5.3,11.8,11.8v0
		C152.5,164.9,147.2,170.2,140.7,170.2z"/>
	<path class="st4" d="M285.5,157.3L285.5,157.3c-5.5,0-10-4.5-10-10v0c0-5.5,4.5-10,10-10l0,0c5.5,0,10,4.5,10,10v0
		C295.5,152.8,291,157.3,285.5,157.3z"/>
	<path class="st2" d="M298.2,170.4L298.2,170.4c-5,0-9-4-9-9v0c0-4.9,4-9,9-9l0,0c5,0,9,4.1,9,9v0
		C307.2,166.3,303.2,170.4,298.2,170.4z"/>
	<path class="st1" d="M318.1,170.4L318.1,170.4c-6,0-10.8-4.9-10.8-10.8v0c0-6,4.9-10.8,10.8-10.8h0c6,0,10.8,4.9,10.8,10.8v0
		C328.9,165.5,324,170.4,318.1,170.4z"/>
	<path class="st3" d="M352,170.4L352,170.4c-2.3,0-4.2-1.9-4.2-4.2l0,0c0-2.3,1.9-4.2,4.2-4.2h0c2.3,0,4.2,1.9,4.2,4.2l0,0
		C356.2,168.5,354.3,170.4,352,170.4z"/>
	<path class="st2" d="M361.9,170.5L361.9,170.5c-3.2,0-5.7-2.6-5.7-5.7l0,0c0-3.2,2.6-5.7,5.7-5.7h0c3.2,0,5.7,2.6,5.7,5.7l0,0
		C367.6,167.9,365,170.5,361.9,170.5z"/>
	<path class="st2" d="M308.3,135.2h-0.2c-3.1,0-5.6-2.5-5.6-5.6v0c0-3.1,2.5-5.6,5.6-5.6h0.2c3.1,0,5.6,2.5,5.6,5.6v0
		C314,132.7,311.4,135.2,308.3,135.2z"/>
	<path class="st4" d="M313.1,149.4L313.1,149.4c-4.1,0-7.5-3.4-7.5-7.5v0c0-4.1,3.4-7.5,7.5-7.5l0,0c4.1,0,7.5,3.4,7.5,7.5v0
		C320.6,146,317.2,149.4,313.1,149.4z"/>
	<path class="st4" d="M320.7,136.6L320.7,136.6c-3.5,0-6.4-2.9-6.4-6.4v0c0-3.5,2.9-6.4,6.4-6.4h0c3.5,0,6.4,2.9,6.4,6.4v0
		C327.1,133.8,324.2,136.6,320.7,136.6z"/>
	<path class="st4" d="M389.7,133.3L389.7,133.3c-2.6,0-4.8-2.1-4.8-4.8v0c0-2.6,2.1-4.8,4.8-4.8l0,0c2.6,0,4.8,2.1,4.8,4.8v0
		C394.4,131.2,392.3,133.3,389.7,133.3z"/>
	<path class="st4" d="M377.4,136.3L377.4,136.3c-3.4,0-6.2-2.8-6.2-6.2v0c0-3.4,2.8-6.2,6.2-6.2l0,0c3.4,0,6.2,2.8,6.2,6.2v0
		C383.6,133.5,380.8,136.3,377.4,136.3z"/>
	<path class="st3" d="M330,152.6L330,152.6c-5.2,0-9.5-4.3-9.5-9.5v0c0-5.2,4.3-9.5,9.5-9.5h0c5.2,0,9.5,4.3,9.5,9.5v0
		C339.5,148.3,335.3,152.6,330,152.6z"/>
	<path class="st3" d="M294.3,139.7L294.3,139.7c-4.4,0-7.9-3.6-7.9-7.9v0c0-4.4,3.6-7.9,7.9-7.9h0c4.4,0,7.9,3.6,7.9,7.9v0
		C302.3,136.1,298.7,139.7,294.3,139.7z"/>
	<path class="st3" d="M322.8,124L322.8,124c-1.9,0-3.4-1.5-3.4-3.4v0c0-1.9,1.5-3.4,3.4-3.4l0,0c1.9,0,3.4,1.5,3.4,3.4v0
		C326.2,122.5,324.7,124,322.8,124z"/>
	<path class="st3" d="M269.7,124.9L269.7,124.9c-1.8,0-3.2-1.5-3.2-3.2v0c0-1.8,1.5-3.2,3.2-3.2l0,0c1.8,0,3.2,1.5,3.2,3.2v0
		C272.9,123.5,271.4,124.9,269.7,124.9z"/>
	<path class="st3" d="M270.5,150.4L270.5,150.4c-2.9,0-5.2-2.3-5.2-5.2l0,0c0-2.9,2.3-5.2,5.2-5.2l0,0c2.9,0,5.2,2.3,5.2,5.2l0,0
		C275.7,148.1,273.3,150.4,270.5,150.4z"/>
	<path class="st1" d="M300.4,148.8L300.4,148.8c-2.9,0-5.3-2.4-5.3-5.3v0c0-2.9,2.4-5.3,5.3-5.3l0,0c2.9,0,5.3,2.4,5.3,5.3v0
		C305.7,146.4,303.3,148.8,300.4,148.8z"/>
	<path class="st1" d="M305.9,155L305.9,155c-2.2,0-4-1.8-4-4l0,0c0-2.2,1.8-4,4-4l0,0c2.2,0,4,1.8,4,4l0,0
		C310,153.1,308.2,155,305.9,155z"/>
	<path class="st2" d="M69.9,159.1L69.9,159.1c-2.2,0-4-1.8-4-4l0,0c0-2.2,1.8-4,4-4h0c2.2,0,4,1.8,4,4l0,0
		C73.9,157.3,72.1,159.1,69.9,159.1z"/>
	<path class="st2" d="M97.5,129.6L97.5,129.6c-1.6,0-2.9-1.3-2.9-2.9v0c0-1.6,1.3-2.9,2.9-2.9h0c1.6,0,2.9,1.3,2.9,2.9v0
		C100.4,128.3,99.1,129.6,97.5,129.6z"/>
	<path class="st2" d="M46.1,170.3L46.1,170.3c-1.6,0-2.9-1.3-2.9-2.9v0c0-1.6,1.3-2.9,2.9-2.9h0c1.6,0,2.9,1.3,2.9,2.9v0
		C49,169,47.7,170.3,46.1,170.3z"/>
	<path class="st2" d="M111.8,152.1L111.8,152.1c-2.8,0-5-2.3-5-5v0c0-2.8,2.3-5,5-5h0c2.8,0,5,2.3,5,5v0
		C116.8,149.8,114.5,152.1,111.8,152.1z"/>
	<path class="st2" d="M139.9,136.5L139.9,136.5c-3.5,0-6.3-2.8-6.3-6.3v0c0-3.5,2.8-6.3,6.3-6.3h0c3.5,0,6.3,2.8,6.3,6.3v0
		C146.2,133.7,143.3,136.5,139.9,136.5z"/>
	<path class="st2" d="M105.3,124.1L105.3,124.1c-4.2,0-7.6-3.4-7.6-7.6v0c0-4.2,3.4-7.6,7.6-7.6h0c4.2,0,7.6,3.4,7.6,7.6v0
		C112.9,120.7,109.4,124.1,105.3,124.1z"/>
	<path class="st4" d="M81.4,162.4L81.4,162.4c-4.1,0-7.5-3.4-7.5-7.5v0c0-4.1,3.4-7.5,7.5-7.5h0c4.1,0,7.5,3.4,7.5,7.5v0
		C88.9,159.1,85.6,162.4,81.4,162.4z"/>
	<path class="st4" d="M120.6,129.4L120.6,129.4c-4.6,0-8.4-3.8-8.4-8.4v0c0-4.6,3.8-8.4,8.4-8.4h0c4.6,0,8.4,3.8,8.4,8.4v0
		C129,125.6,125.2,129.4,120.6,129.4z"/>
	<path class="st4" d="M92.5,140.1L92.5,140.1c-3.3,0-6-2.7-6-6v0c0-3.3,2.7-6,6-6h0c3.3,0,6,2.7,6,6v0
		C98.5,137.4,95.8,140.1,92.5,140.1z"/>
	<path class="st4" d="M13.2,170.4L13.2,170.4c-3.3,0.1-6.1-2.5-6.3-5.8h0c-0.1-3.3,2.5-6.1,5.8-6.3h0c3.3-0.1,6.1,2.5,6.3,5.8v0
		C19.1,167.4,16.5,170.3,13.2,170.4z"/>
	<path class="st3" d="M97.3,158.3L97.3,158.3c-5.2,0-9.5-4.3-9.5-9.5v0c0-5.2,4.3-9.5,9.5-9.5h0c5.2,0,9.5,4.3,9.5,9.5v0
		C106.8,154.1,102.6,158.3,97.3,158.3z"/>
	<path class="st3" d="M91.7,126L91.7,126c-3.5,0-6.4-2.9-6.4-6.4v0c0-3.5,2.9-6.4,6.4-6.4h0c3.5,0,6.4,2.9,6.4,6.4v0
		C98.1,123.1,95.2,126,91.7,126z"/>
	<path class="st3" d="M159.5,154.2L159.5,154.2c-8.4,0-15.2-6.8-15.2-15.2v0c0-8.4,6.8-15.2,15.2-15.2h0c8.4,0,15.2,6.8,15.2,15.2v0
		C174.7,147.4,167.9,154.2,159.5,154.2z"/>
	<path class="st1" d="M64.9,152.6L64.9,152.6c-2.9,0-5.3-2.4-5.3-5.3v0c0-2.9,2.4-5.3,5.3-5.3h0c2.9,0,5.3,2.4,5.3,5.3v0
		C70.1,150.2,67.8,152.6,64.9,152.6z"/>
	<path class="st2" d="M387,153.1L387,153.1c-5.5,0-10-4.5-10-10v0c0-5.5,4.5-10,10-10h0c5.5,0,10,4.5,10,10v0
		C397,148.6,392.5,153.1,387,153.1z"/>
	<path class="st2" d="M337.1,134.9L337.1,134.9c-6.2,0-11.2-5-11.2-11.2v0c0-6.2,5-11.2,11.2-11.2h0c6.2,0,11.2,5,11.2,11.2v0
		C348.3,129.8,343.3,134.9,337.1,134.9z"/>
	<path class="st1" d="M407.1,153.4L407.1,153.4c-4.7,0-8.5-3.8-8.5-8.5v0c0-4.7,3.8-8.5,8.5-8.5l0,0c4.7,0,8.5,3.8,8.5,8.5v0
		C415.6,149.5,411.7,153.4,407.1,153.4z"/>
	<path class="st4" d="M338.9,170.4L338.9,170.4c-5.5,0-10-4.5-10-10v0c0-5.5,4.5-10,10-10h0c5.5,0,10,4.5,10,10v0
		C348.9,165.9,344.4,170.4,338.9,170.4z"/>
	<path class="st1" d="M358,158.5L358,158.5c-9.1,0-16.6-7.5-16.6-16.6v0c0-9.1,7.5-16.6,16.6-16.6h0c9.1,0,16.6,7.5,16.6,16.6v0
		C374.5,151.1,367.1,158.5,358,158.5z"/>
	<path class="st1" d="M172.9,170.3L172.9,170.3c-5.5,0-10-4.5-10-10v0c0-5.5,4.5-10,10-10h0c5.5,0,10,4.5,10,10v0
		C182.9,165.8,178.4,170.3,172.9,170.3z"/>
	<path class="st2" d="M429.6,159.4L429.6,159.4c-1.7,0-3.2-1.4-3.2-3.2l0,0c0-1.7,1.4-3.2,3.2-3.2l0,0c1.7,0,3.2,1.4,3.2,3.2l0,0
		C432.8,157.9,431.4,159.4,429.6,159.4z"/>
	<path class="st3" d="M432.3,170.4L432.3,170.4c-3.2,0-5.7-2.6-5.7-5.7l0,0c0-3.2,2.6-5.7,5.7-5.7l0,0c3.2,0,5.7,2.6,5.7,5.7l0,0
		C438,167.8,435.5,170.4,432.3,170.4z"/>
	<path class="st3" d="M399.2,138.9L399.2,138.9c-3.2,0-5.8-2.6-5.8-5.8l0,0c0-3.2,2.6-5.8,5.8-5.8l0,0c3.2,0,5.8,2.6,5.8,5.8l0,0
		C404.9,136.3,402.4,138.9,399.2,138.9z"/>
	<path class="st3" d="M368.4,128L368.4,128c-3.2,0-5.8-2.6-5.8-5.8v0c0-3.2,2.6-5.8,5.8-5.8h0c3.2,0,5.8,2.6,5.8,5.8v0
		C374.1,125.4,371.5,128,368.4,128z"/>
	<path class="st1" d="M417.2,170.4L417.2,170.4c-5.5,0-10-4.5-10-10v0c0-5.5,4.5-10,10-10h0c5.5,0,10,4.5,10,10v0
		C427.2,165.9,422.7,170.4,417.2,170.4z"/>
	<path class="st1" d="M197.7,170.4L197.7,170.4c-2.2,0-3.9-1.8-3.9-3.9v0c0-2.2,1.8-3.9,3.9-3.9l0,0c2.2,0,3.9,1.8,3.9,3.9v0
		C201.7,168.6,199.9,170.4,197.7,170.4z"/>
	<path class="st1" d="M102.8,170.4L102.8,170.4c-3.6,0-6.5-2.9-6.5-6.5v0c0-3.6,2.9-6.5,6.5-6.5h0c3.6,0,6.5,2.9,6.5,6.5v0
		C109.3,167.5,106.4,170.4,102.8,170.4z"/>
	<path class="st1" d="M126.4,151.7L126.4,151.7c-6,0-10.9-4.9-10.9-10.9v0c0-6,4.9-10.9,10.9-10.9h0c6,0,10.9,4.9,10.9,10.9v0
		C137.3,146.8,132.4,151.7,126.4,151.7z"/>
	<path class="st1" d="M126.7,113.6L126.7,113.6c-6,0-10.9-4.9-10.9-10.9v0c0-6,4.9-10.9,10.9-10.9h0c6,0,10.9,4.9,10.9,10.9v0
		C137.5,108.7,132.6,113.6,126.7,113.6z"/>
	<path class="st1" d="M107.8,142.5L107.8,142.5c-5.1,0-9.3-4.2-9.3-9.3v0c0-5.1,4.2-9.3,9.3-9.3h0c5.1,0,9.3,4.2,9.3,9.3v0
		C117.1,138.3,112.9,142.5,107.8,142.5z"/>
	<path class="st1" d="M135.4,124.7L135.4,124.7c-3.7,0-6.7-3-6.7-6.7v0c0-3.7,3-6.7,6.7-6.7h0c3.7,0,6.7,3,6.7,6.7v0
		C142.2,121.7,139.1,124.7,135.4,124.7z"/>
	<path class="st3" d="M72,170.4L72,170.4c-3.2,0-5.7-2.6-5.7-5.7v0c0-3.2,2.6-5.7,5.7-5.7h0c3.2,0,5.7,2.6,5.7,5.7v0
		C77.7,167.8,75.1,170.4,72,170.4z"/>
	<path class="st3" d="M90.9,170.4L90.9,170.4c-3,0-5.4-2.4-5.4-5.4v0c0-3,2.4-5.4,5.4-5.4h0c3,0,5.4,2.4,5.4,5.4v0
		C96.4,168,93.9,170.4,90.9,170.4z"/>
	<path class="st3" d="M85.6,131L85.6,131c-2,0-3.6-1.6-3.6-3.6v0c0-2,1.6-3.6,3.6-3.6h0c2,0,3.6,1.6,3.6,3.6v0
		C89.1,129.4,87.5,131,85.6,131z"/>
	<path class="st3" d="M3.6,170.4L3.6,170.4c-2,0-3.6-1.6-3.6-3.6l0,0c0-2,1.6-3.6,3.6-3.6h0c2,0,3.6,1.6,3.6,3.6l0,0
		C7.2,168.8,5.6,170.4,3.6,170.4z"/>
	<path class="st3" d="M130.6,130.7L130.6,130.7c-1.9,0-3.4-1.5-3.4-3.4v0c0-1.9,1.5-3.4,3.4-3.4l0,0c1.9,0,3.4,1.5,3.4,3.4v0
		C134,129.1,132.5,130.7,130.6,130.7z"/>
	<path class="st3" d="M114.7,114.2L114.7,114.2c-1.9,0-3.5-1.6-3.5-3.5v0c0-1.9,1.6-3.5,3.5-3.5h0c1.9,0,3.5,1.6,3.5,3.5v0
		C118.2,112.6,116.6,114.2,114.7,114.2z"/>
	<path class="st1" d="M56.9,170.3L56.9,170.3c-5.5,0-10-4.5-10-10v0c0-5.5,4.5-10,10-10h0c5.5,0,10,4.5,10,10v0
		C66.9,165.8,62.4,170.3,56.9,170.3z"/>
	<path class="st1" d="M81.7,170.4L81.7,170.4c-2.2,0-3.9-1.8-3.9-3.9l0,0c0-2.2,1.8-3.9,3.9-3.9h0c2.2,0,3.9,1.8,3.9,3.9l0,0
		C85.6,168.6,83.9,170.4,81.7,170.4z"/>
	<path class="st2" d="M384.7,166.8L384.7,166.8c-3.5,4.2-9.9,4.7-14.1,1.2v0c-4.2-3.5-4.7-9.9-1.2-14.1l0,0
		c3.5-4.2,9.9-4.7,14.1-1.2l0,0C387.7,156.3,388.2,162.6,384.7,166.8z"/>
	<path class="st3" d="M397.1,170.4L397.1,170.4c-5.5,0-10-4.5-10-10v0c0-5.5,4.5-10,10-10h0c5.5,0,10,4.5,10,10v0
		C407.1,165.9,402.6,170.4,397.1,170.4z"/>
	<path class="st4" d="M157.4,170.3L157.4,170.3c-3.3,0-6-2.7-6-6v0c0-3.3,2.7-6,6-6h0c3.3,0,6,2.7,6,6v0
		C163.4,167.6,160.7,170.3,157.4,170.3z"/>
	<path class="st4" d="M140.9,146.6L140.9,146.6c-2.1,0-3.8-1.7-3.8-3.8v0c0-2.1,1.7-3.8,3.8-3.8h0c2.1,0,3.8,1.7,3.8,3.8v0
		C144.7,144.9,143,146.6,140.9,146.6z"/>
	<path class="st4" d="M148.2,127.1L148.2,127.1c-3.5,0-6.3-2.8-6.3-6.3v0c0-3.5,2.8-6.3,6.3-6.3h0c3.5,0,6.3,2.8,6.3,6.3v0
		C154.5,124.3,151.6,127.1,148.2,127.1z"/>
</g>
</svg>
