<?xml version="1.0" standalone="no"?>
<!DOCTYPE svg PUBLIC "-//W3C//DTD SVG 1.1//EN" "http://www.w3.org/Graphics/SVG/1.1/DTD/svg11.dtd">
<svg width="100%" height="100%" viewBox="0 0 994 343" version="1.1" xmlns="http://www.w3.org/2000/svg" xmlns:xlink="http://www.w3.org/1999/xlink" xml:space="preserve" style="fill-rule:evenodd;clip-rule:evenodd;stroke-miterlimit:1.41421;">
    <path id="path3962" d="M103.214,195.857C103.214,195.857 144.164,245.751 160.357,235.143C167.253,230.626 169.353,228.467 172.136,224.173C176.522,217.408 178.887,208.348 181.071,197.643C184.588,180.411 188.571,158.357 202.143,159.786C215.714,161.214 220.714,191.929 220.714,191.929C220.714,191.929 234.286,238.357 243.571,249.786C252.857,261.214 265.357,273.714 280.357,257.286C295.357,240.857 331.786,193.714 331.786,193.714C331.786,193.714 365.963,154.894 380.714,140.143C393.571,127.286 407.143,103 407.143,103C407.143,103 422.857,71.5714 393.571,42.2857C364.286,13 353.571,15.8571 353.571,15.8571C353.571,15.8571 336.786,11.9286 307.5,18.3571C278.214,24.7857 259.286,37.2857 259.286,37.2857C259.286,37.2857 235,54.7857 250,76.5714C265,98.3571 295.743,137.72 311.429,155.857C325.379,171.988 342.247,191.318 378.571,209.786C425.895,233.845 447.857,249.071 484.643,213.714C521.429,178.357 527.857,198.357 527.857,198.357C527.857,198.357 532.857,204.071 537.143,223.357C541.429,242.643 547.5,252.286 568.571,248.357C589.643,244.429 603.929,237.286 621.429,238.357C638.929,239.429 661.071,244.786 661.071,244.786C661.071,244.786 716.029,261.085 731.071,236.571C740.714,220.857 741.071,206.929 736.786,194.786C732.723,183.276 726.429,176.571 731.786,169.786C737.143,163 737.143,162.286 745.357,157.643C751.256,154.309 797.5,136.214 797.5,136.214L847.857,111.571C847.857,111.571 872.5,96.5714 881.071,116.571C889.643,136.571 870.714,149.786 870.714,149.786C870.714,149.786 858.571,159.071 839.643,168C820.714,176.929 801.429,194.071 801.429,194.071C801.429,194.071 787.857,206.214 795.714,219.071C803.571,231.929 853.571,222.643 853.571,222.643C853.571,222.643 945.714,203.357 973.214,193" style="fill:none;stroke-width:1px;stroke:rgb(241,183,105);"/>
</svg>
