<?xml version="1.0" standalone="no"?>
<!DOCTYPE svg PUBLIC "-//W3C//DTD SVG 1.1//EN" "http://www.w3.org/Graphics/SVG/1.1/DTD/svg11.dtd">
<svg width="100%" height="100%" viewBox="0 0 994 343" version="1.1" xmlns="http://www.w3.org/2000/svg" xmlns:xlink="http://www.w3.org/1999/xlink" xml:space="preserve" style="fill-rule:evenodd;clip-rule:evenodd;stroke-miterlimit:1.41421;">
    <path id="path3046" d="M17.5,255.143C17.5,255.143 81.2137,232.484 116.682,208.338C132.267,197.728 142.593,183.655 143.214,170.5C144.058,152.65 134.334,148.519 128.307,147.516C117.32,145.688 106.118,154.956 108.571,173.357C111.429,194.786 125,219.786 178.571,229.071C232.928,238.493 284.286,215.5 298.214,180.143C312.143,144.786 308.929,113 308.929,113C308.929,113 308.929,56.5714 287.143,46.9286C265.357,37.2857 251.786,53.7143 251.786,53.7143C251.786,53.7143 199.643,96.5714 196.786,143.714C193.929,190.857 206.071,233 206.071,233C206.071,233 212.857,277.643 251.429,271.214C290,264.786 303.571,256.929 303.571,256.929C303.571,256.929 329.286,246.929 347.5,218C365.714,189.071 393.214,141.571 393.214,141.571C393.214,141.571 415.357,105.143 405.357,62.6429C395.357,20.1429 374.286,10.8571 357.5,24.7857C340.714,38.7143 338.571,60.1429 362.5,87.6429C386.429,115.143 432.143,130.857 432.143,130.857C432.143,130.857 473.929,145.5 494.643,180.5C515.357,215.5 520.357,234.429 520.357,234.429C520.357,234.429 528.929,252.286 502.5,261.571C476.071,270.857 448.929,271.571 448.929,271.571C448.929,271.571 386.786,277.286 402.857,239.071C418.929,200.857 446.786,173.714 446.786,173.714C446.786,173.714 480.357,138.714 553.214,137.286C626.071,135.857 653.214,143.714 653.214,143.714C653.214,143.714 707.5,155.143 732.143,179.071C756.786,203 748.214,221.571 748.214,221.571C748.214,221.571 746.429,233.357 724.286,233.357C702.143,233.357 652.042,234.416 611.786,230.857C604.81,230.241 594.286,229.071 594.643,218.714C595,208.357 605.714,208.357 605.714,208.357C605.714,208.357 627.398,203.522 643.066,189.619C650.325,183.177 656.292,176.753 658.214,164.429C664.286,125.5 663.571,131.571 663.571,131.571C663.571,131.571 667.5,112.286 701.786,113.714C736.071,115.143 751.973,130.022 756.786,133.714C762.562,138.146 768.502,140.568 794.473,180.249C803.222,193.615 807.324,200.688 812.143,209.071C822.506,227.098 834.592,229.419 842.181,229.881C860.217,230.978 867.566,199.258 868.571,191.214C870,179.786 870,133.714 900,134.071C930,134.429 941.071,174.429 941.071,174.429C941.071,174.429 947.5,205.143 975.357,199.786" style="fill:none;stroke-width:1px;stroke:rgb(223,219,113);"/>
</svg>
