<?xml version="1.0" standalone="no"?>
<!DOCTYPE svg PUBLIC "-//W3C//DTD SVG 1.1//EN" "http://www.w3.org/Graphics/SVG/1.1/DTD/svg11.dtd">
<svg width="100%" height="100%" viewBox="0 0 994 343" version="1.1" xmlns="http://www.w3.org/2000/svg" xmlns:xlink="http://www.w3.org/1999/xlink" xml:space="preserve" style="fill-rule:evenodd;clip-rule:evenodd;stroke-miterlimit:1.41421;">
    <path id="path4161" d="M72.1429,236.214C72.1429,236.214 100.714,176.214 144.286,181.214C187.857,186.214 253.214,231.571 253.214,231.571C253.214,231.571 284.286,251.929 282.5,273C280.714,294.071 260.357,290.143 260.357,290.143C260.357,290.143 231.429,286.929 211.429,295.5C191.429,304.071 174.286,291.929 170,283.357C165.714,274.786 164.14,266.904 164.286,258.357C164.428,249.984 170.714,234.071 170.714,234.071C170.714,234.071 194.487,166.35 210,134.071C217.554,118.354 223.214,105.143 236.071,88.7143C249.149,72.004 268.613,55.1376 288.214,40.8571C303.308,29.8603 317.5,19.4286 341.071,22.2857C364.643,25.1429 366.429,26.9286 381.429,35.5C396.429,44.0714 468.929,88.3571 468.929,88.3571C468.929,88.3571 524.607,122.617 545.357,157.643C565.014,190.824 563.957,194.802 573.571,217.286C579.751,231.737 587.143,253 559.286,265.857C531.429,278.714 518.225,273.345 503.885,268.487C493.634,265.014 484.688,259.813 476.429,250.143C468.319,240.648 468.252,234.144 465.357,226.214C461.885,216.701 460.84,214.266 450,204.429C434.872,190.7 423.091,188.458 412.857,185.857C402.401,183.2 391.786,183.714 385.357,172.643C378.929,161.571 381.032,152.799 384.286,143.714C388.448,132.092 396.786,110.5 422.5,90.5C448.214,70.5 467.5,63.3571 467.5,63.3571C467.5,63.3571 488.214,55.5 511.071,56.9286C533.929,58.3571 543.182,58.7609 558.571,63C585.608,70.4477 607.368,78.1711 635.714,96.5714C656.071,109.786 678.929,124.786 677.5,149.786C675.788,179.745 659.71,185.038 643.553,193.487C632.416,199.312 616.754,206.963 604.286,195.143C601.023,192.05 596.146,185.861 595,180.143C593.479,172.555 593.929,166.214 609.286,155.143C624.643,144.071 640.012,138.406 656.071,134.071C671.133,130.006 695.714,120.857 713.929,141.214C732.143,161.571 727.271,170.978 725.13,178.007C722.428,186.88 717.5,191.214 689.643,209.786C661.786,228.357 649.286,233.714 642.5,241.929C633.603,252.699 630.714,263 636.071,274.071C641.429,285.143 653.571,288 674.286,288C695,288 714.643,281.214 733.929,271.214C753.214,261.214 804.354,228.547 825.357,197.643C845.758,167.625 849.567,155.439 853.214,131.929C853.82,128.023 857.857,113.714 847.857,107.286C837.857,100.857 814.492,113.241 802.143,123.714C775.316,146.465 754.286,172.286 750.714,215.857C747.143,259.429 763.214,273.357 763.214,273.357C763.214,273.357 784.286,296.571 828.571,280.143C872.857,263.714 891.071,233.357 896.429,199.429" style="fill:none;stroke-width:1px;stroke:rgb(65,143,143);"/>
</svg>
