<?xml version="1.0" standalone="no"?>
<!DOCTYPE svg PUBLIC "-//W3C//DTD SVG 1.1//EN" "http://www.w3.org/Graphics/SVG/1.1/DTD/svg11.dtd">
<svg width="100%" height="100%" viewBox="0 0 994 343" version="1.1" xmlns="http://www.w3.org/2000/svg" xmlns:xlink="http://www.w3.org/1999/xlink" xml:space="preserve" style="fill-rule:evenodd;clip-rule:evenodd;stroke-miterlimit:1.41421;">
    <path id="path4255" d="M125.714,189.429C125.714,189.429 127.143,160.143 147.857,138.714C168.571,117.286 180,114.429 180,114.429C180,114.429 190.714,108.714 203.929,109.429C217.143,110.143 225.714,119.429 225.714,119.429C225.714,119.429 258.929,150.5 284.643,195.5C310.357,240.5 331.786,242.643 331.786,242.643C331.786,242.643 353.571,256.571 380.357,219.786C407.143,183 417.857,127.286 417.857,127.286C417.857,127.286 430.357,60.5 396.786,36.9286C363.214,13.3571 334.286,18 334.286,18C334.286,18 311.071,15.5 284.643,47.6429C258.214,79.7857 233.929,121.929 233.929,121.929L215.714,155.857C215.714,155.857 186.429,205.143 200.714,259.071C215,313 308.929,321.929 308.929,321.929C308.929,321.929 401.786,335.5 451.429,288.714C501.071,241.929 476.97,211.607 476.97,211.607C476.97,211.607 453.214,179.786 452.857,158.714C452.5,137.643 461.786,126.214 473.929,120.5C486.071,114.786 505.714,113.357 515.357,116.214C525,119.071 527.5,119.071 555.357,146.929C583.214,174.786 625.357,226.214 625.357,226.214C625.357,226.214 636.786,244.071 650,242.286C663.214,240.5 671.429,223.714 671.429,223.714C671.429,223.714 695,188.714 712.5,174.786C730,160.857 758.571,142.286 757.5,122.286C756.429,102.286 731.429,100.143 731.429,100.143L652.5,99.0714C652.5,99.0714 619.286,100.143 618.929,124.071C618.571,148 647.857,162.286 647.857,162.286L700.357,193.357L771.429,230.143C771.429,230.143 810.357,255.5 820.357,243.357C830.357,231.214 821.887,214.417 821.887,214.417C821.887,214.417 813.571,192.286 814.643,176.929C815.714,161.571 817.143,151.571 846.071,151.214C875,150.857 921.071,190.5 921.071,190.5" style="fill:none;stroke-width:1px;stroke:rgb(69,144,175);"/>
</svg>
