<?xml version="1.0" encoding="UTF-8" standalone="no"?>
<!-- Created with Inkscape (http://www.inkscape.org/) -->

<svg
   xmlns:dc="http://purl.org/dc/elements/1.1/"
   xmlns:cc="http://creativecommons.org/ns#"
   xmlns:rdf="http://www.w3.org/1999/02/22-rdf-syntax-ns#"
   xmlns:svg="http://www.w3.org/2000/svg"
   xmlns="http://www.w3.org/2000/svg"
   xmlns:sodipodi="http://sodipodi.sourceforge.net/DTD/sodipodi-0.dtd"
   xmlns:inkscape="http://www.inkscape.org/namespaces/inkscape"
   width="210mm"
   height="297mm"
   viewBox="0 0 744.09448819 1052.3622047"
   id="svg2"
   version="1.1"
   inkscape:version="0.91 r13725"
   sodipodi:docname="logo_hand_bw2.svg"
   inkscape:export-filename="/home/odeialba/Workspace/iQuest2/iQuest/source/images/logo_hand_bw.svg.png"
   inkscape:export-xdpi="90"
   inkscape:export-ydpi="90">
  <defs
     id="defs4" />
  <sodipodi:namedview
     id="base"
     pagecolor="#ffffff"
     bordercolor="#666666"
     borderopacity="1.0"
     inkscape:pageopacity="0.0"
     inkscape:pageshadow="2"
     inkscape:zoom="0.24748738"
     inkscape:cx="-217.78617"
     inkscape:cy="965.08308"
     inkscape:document-units="px"
     inkscape:current-layer="layer1"
     showgrid="false"
     inkscape:window-width="1920"
     inkscape:window-height="1007"
     inkscape:window-x="0"
     inkscape:window-y="0"
     inkscape:window-maximized="1"
     inkscape:snap-global="true"
     inkscape:object-paths="false"
     inkscape:snap-to-guides="true"
     inkscape:snap-page="false" />
  <metadata
     id="metadata7">
    <rdf:RDF>
      <cc:Work
         rdf:about="">
        <dc:format>image/svg+xml</dc:format>
        <dc:type
           rdf:resource="http://purl.org/dc/dcmitype/StillImage" />
        <dc:title />
      </cc:Work>
    </rdf:RDF>
  </metadata>
  <g
     inkscape:label="Layer 1"
     inkscape:groupmode="layer"
     id="layer1">
    <path
       style="fill:#000000"
       d="m 5744.2384,620.1491 c -48.2829,-2.9271 -78.588,-6.8767 -183.0001,-23.85 -129.339,-21.0255 -143.5595,-22.777 -185.0001,-22.7868 -35.2541,-0.01 -53.0605,2.49503 -98.6634,13.8701 -2.1217,0.52923 -23.0976,7.17287 -32.9849,9.30188 -10.2008,2.19651 -21.323,5.15347 -38.7855,8.30513 -16.4153,2.96266 -35.2699,5.36489 -60.3324,8.05444 -22.8121,2.44804 -24.2203,1.69559 -54.84,2.17943 -30.6197,0.48383 -77.5067,-2.83039 -113.6791,-9.36694 -36.0124,-6.50763 -89.6342,-21.84008 -131.3994,-19.73921 -41.1013,2.06747 -116.4642,-19.21129 -135.8401,-22.80353 -45.8705,-8.50427 -79.6879,-19.92867 -126.3627,0.5694 -63.0974,27.7104 -98.3425,47.64195 -165.9676,33.89334 -47.0788,-9.5714 -110.8303,17.62769 -168.9306,18.03939 -29.0501,0.20584 -61.2969,-8.39642 -95.4079,-19.9688 -29.5637,-10.02968 -61.7694,-19.84818 -90.015,-27.58494 -58.737,-16.0887 -112.8202,-18.10506 -165.8766,-20.13858 -46.9248,-1.79851 -91.8576,10.46426 -129.3641,18.15784 -58.9763,12.09762 -208.219,50.19663 -274.462,50.55754 -66.243,0.36092 -111.9236,-27.14179 -178.9301,-26.79391 -67.0065,0.34788 -144.9818,15.68921 -212.2428,16.02392 -67.2611,0.33471 -140.317,-12.57257 -198.9607,-28.19036 -64.7222,-17.2366 -172.5789,-32.51751 -238.7723,-32.25975 -66.1934,0.25775 -98.6829,9.43958 -160.9179,19.9249 -63.6331,10.72086 -118.1909,18.88752 -178.7892,28.6977 -62.3127,10.08774 -132.8057,16.33048 -193.6436,16.53456 -60.838,0.20408 -86.5679,-17.77736 -139.0639,-34.99984 -55.1596,-18.09632 -64.0774,-20.32244 -118.843,-20.34453 -106.788,-0.0431 -145.3108,63.15104 -261.9487,63.12303 -101.9569,-0.0245 -209.4884,-25.1918 -287.6624,-37.28903 -31.694,-4.90456 -96.8967,-16.35244 -158.1431,-16.02004 -61.2464,0.33239 -161.1198,38.28396 -196.68737,44.53908 -33.0698,5.81582 -58.5001,7.89582 -62.7528,8.10725 -26.2221,1.3037 -114.4643,2.37943 -141.67482,1.08143 -59.1718,-2.8293 -87.5771,-6.4032 -151,-18.9986 -72.3363,-14.3656 -103.5704,-17.7596 -153.5,-16.68 -29.2585,0.6327 -36.3363,1.1752 -81.5,6.2465 -36.4713,4.0953 -56.4438,5.134 -68.9002,3.5831 -8.4586,-1.0531 -29.2881,-6.3961 -45.6178,-11.7014 -13.7645,-4.4719 -23.4075,-2.6134 -35.0253,6.7507 -10.3175,8.3159 -12.9055,9.8068 -17.0237,9.8068 -2.901,0 -4.2731,-0.6169 -5.8604,-2.6349 -3.1163,-3.9617 -2.5495,-7.7854 2.9353,-19.8036 2.7457,-6.0161 4.9881,-10.9661 4.9833,-11 -0.01,-0.034 -5.36,-0.2015 -11.9004,-0.3726 -11.4225,-0.2989 -11.9549,-0.2211 -13.4913,1.9725 -0.8797,1.256 -1.5995,2.9137 -1.5995,3.6838 0,0.7701 2.925,4.1985 6.5,7.6186 5.7443,5.4954 6.5,6.6554 6.5,9.9773 0,2.9415 -0.7394,4.4983 -3.4,7.1589 -4.4599,4.4599 -7.7902,4.4364 -14.1708,-0.1 -2.7075,-1.925 -5.6986,-3.5 -6.6468,-3.5 -0.9481,0 -3.7283,1.4128 -6.1781,3.1396 -3.0513,2.1507 -6.0064,3.2887 -9.3827,3.6131 -4.5957,0.4416 -5.1697,0.2326 -8.4971,-3.0948 l -3.5684,-3.5685 -2.5306,1.9905 c -9.6472,7.5885 -19.6255,6.705 -19.6255,-1.7378 l 0,-3.3479 -3.5235,3.9001 c -8.6638,9.5899 -19.4765,8.6907 -19.4765,-1.6197 l 0,-3.2804 -3.674804,4.0677 c -7.3048,8.0854 -12.729,8.994 -18.2288,3.0535 l -3.5964,-3.8847 -4.9012,4.3218 c -2.6957,2.377 -7.8707,5.7909 -11.5,7.5864 -5.6414,2.791 -7.9192,3.3243 -15.6997,3.6756 -10.1338,0.4577 -14.906,-0.9687 -21.2895,-6.3633 -4.2264,-3.5717 -9.1078,-13.6546 -9.1088,-18.8152 l -8e-4,-3.8639 -4.0404,6.0505 c -5.2072,7.7978 -13.6729,15.4991 -21.2324,19.3151 -9.5134,4.8023 -16.6847,5.8557 -39.9949,5.8746 -21.3831,0.017 -25.7323,-0.387 -25.7323,-2.3927 0,-0.8534 6.4646,-1.1577 24.25,-1.1416 26.0484,0.024 29.9088,-0.546 40.7951,-6.019 9.9369,-4.9957 21.1625,-18.2451 26.4169,-31.1792 1.2914,-3.1789 3.0657,-5.9253 3.943,-6.1031 1.9771,-0.4008 1.9757,-0.2243 -0.061,8.1696 -3.8838,16.0062 3.6363,29.4917 18.2723,32.7671 10.3477,2.3158 22.9625,-1.7784 33.2748,-10.7994 2.8099,-2.458 5.1089,-4.9272 5.1089,-5.4872 0,-0.5599 -0.9306,-2.325 -2.0681,-3.9224 -3.5519,-4.9882 -6.7477,-4.0666 -13.9329,4.018 -8.62,9.699 -14.3352,12.0236 -21.0389,8.557 -7.6771,-3.97 -9.679,-18.8905 -4.5591,-33.9794 5.7967,-17.0833 18.8676,-33.49429 31.8504,-39.9894 5.831,-2.9171 8.0989,-3.5106 13.4151,-3.5106 6.5574,0 12.3015,1.757 15.6533,4.7881 11.216404,10.14311 6.439804,37.3977 -10.4823,59.8109 -3.625,4.8013 -3.9941,5.7619 -3.0284,7.8815 0.6049,1.3275 2.211,3.1418 3.5692,4.0317 2.2367,1.4656 2.7496,1.473 5.4449,0.079 4.286,-2.2164 11.166404,-10.4711 17.037204,-20.4405 2.802,-4.758 5.508,-9.3259 6.0135,-10.1509 0.6466,-1.0554 1.2457,-1.1891 2.0214,-0.4511 0.7951,0.7564 -0.431,4.3815 -4.3964,12.9988 -3.0244,6.5724 -5.4989,12.7675 -5.4989,13.7668 0,5.6105 4.8476,7.3543 10.0822,3.6269 3.7593,-2.6768 10.478,-11.5201 15.9104,-20.9414 7.1538,-12.4068 7.0885,-12.3189 8.2745,-11.1329 0.7745,0.7745 -0.5695,4.5306 -4.7419,13.2519 -6.0535,12.6532 -7.2936,18.2919 -4.43,20.1439 2.1756,1.407 5.5567,0.4029 11.1751,-3.3185 3.7155,-2.4611 4.7297,-3.717 4.7297,-5.8571 0,-8.8583 6.4247,-19.1781 14.3184,-22.9994 7.7777,-3.7651 13.6816,-1.8698 13.6816,4.3921 0,4.4423 -2.8158,7.649 -13.1324,14.9549 -4.6022,3.2592 -8.772,6.2715 -9.2663,6.6941 -0.5127,0.4384 -0.1807,1.8639 0.7731,3.3197 2.6004,3.9687 8.8267,3.58 15.1964,-0.9487 2.7075,-1.925 5.8862,-3.5 7.0638,-3.5 1.1775,0 4.4306,1.575 7.2291,3.5 5.6786,3.9062 9.0187,4.3924 11.4813,1.6713 3.3138,-3.6617 2.1453,-7.2247 -4.3408,-13.2359 -5.289,-4.9018 -6.0042,-6.0129 -6.0042,-9.327 0,-2.8271 0.7284,-4.4906 2.9305,-6.6928 l 2.9305,-2.9305 12.9831,0.6571 12.9831,0.6571 4.0976,-8.1497 c 2.2536,-4.4823 4.5159,-8.1496 5.0273,-8.1496 2.202,0 1.9203,2.3099 -0.9831,8.0614 -1.705,3.3776 -2.9393,6.3017 -2.7429,6.498 0.1964,0.1964 3.0384,-0.2698 6.3155,-1.036 5.746,-1.3434 8.3885,-0.8374 7.038,1.3478 -0.3554,0.575 -4.1978,1.8087 -8.5387,2.7415 l -7.8925,1.696 -5.0742,10.8179 c -5.5425,11.8161 -6.4202,17.0827 -3.1397,18.8384 2.8094,1.5035 6.1562,-0.071 14.6165,-6.8772 4.0068,-3.2233 9.9095,-7.1492 13.1171,-8.7242 5.0292,-2.4695 7.0018,-2.8636 14.3319,-2.8636 5.9263,0 9.5682,0.5122 12.028,1.6916 1.9404,0.9303 11.6621,3.9722 21.6038,6.7596 28.3294,7.943 38.1585,8.2353 87.8682,2.6123 56.605,-6.403 87.2427,-8.057 121,-6.5324 37.8798,1.7108 59.3519,4.6163 114.5,15.4935 56.7099,11.1853 73.6164,13.8076 109,16.907 63.47792,5.5602 149.13542,6.32454 194.74622,2.52703 3.4128,-0.28415 43.3904,-5.00375 54.3958,-7.21458 33.19827,-6.66909 135.42557,-44.42341 195.68607,-44.774 60.2605,-0.35059 90.2998,4.40023 161.0376,15.32466 83.592,12.90958 186.6626,39.58637 287.563,37.53953 122.4336,-2.48366 141.7601,-61.73749 261.698,-62.9677 54.2756,-0.55671 63.1837,1.44647 117.9284,19.32579 56.1614,18.34199 79.5666,35.25068 139.9626,35.01172 60.396,-0.23897 131.6539,-5.21322 193.3363,-16.44566 64.1248,-11.6772 116.8008,-17.68033 179.4782,-29.33202 66.6842,-12.39656 94.2901,-19.67757 160.0692,-19.94598 65.779,-0.2684 175.6122,15.05073 239.8136,32.62111 63.7838,17.45608 130.5311,29.43789 197.3695,29.14914 66.8384,-0.28876 146.5335,-16.29562 213.1158,-16.59186 66.5822,-0.29623 114.0847,26.47495 179.1426,26.42413 65.8162,-0.0514 213.4201,-38.25936 276.6686,-51.10108 20.7882,-4.22076 74.8897,-19.22888 129.9895,-17.01153 87.892,3.53699 105.2725,6.48207 164.1565,20.16645 33.0833,7.68841 55.8412,16.82698 89.3877,27.99215 34.6302,11.52585 70.6775,21.1823 94.968,20.74114 53.5271,-0.97215 117.527,-28.1225 168.5567,-18.25666 69.0131,13.34267 100.4871,-5.65933 165.9274,-34.93715 45.8578,-20.51666 79.661,-9.25116 127.2439,-0.30875 45.3615,8.52494 93.4041,23.63527 134.7072,23.24929 56.3035,-0.52616 98.9827,14.65991 132.2463,20.02267 35.4858,5.72103 83.7191,9.47366 113.7896,9.11856 30.0704,-0.3551 31.4113,0.71383 54.907,-2.32022 23.3093,-3.00997 42.9352,-4.92689 59.5684,-8.13292 16.7847,-3.23521 28.9452,-5.75698 38.3372,-8.14098 9.1101,-2.31246 22.4399,-6.40579 33.0401,-9.57022 22.969,-6.85687 56.8157,-13.66646 90.107,-14.45926 43.4365,-1.0343 64.7109,1.4417 195.0001,22.6954 110.5103,18.0272 140.4809,21.8441 189.1727,24.0919 46.9756,2.1687 98.4098,-2.4403 151.8798,-13.6098 47.056,-9.8296 94.9659,-25.6544 121.7591,-40.2173 26.3507,-14.3225 48.8835,-33.47131 62.8644,-53.4235 3.0198,-4.30959 6.1281,-7.8357 6.9073,-7.8357 2.1051,0 1.7697,0.90181 -2.8607,7.692 -16.5544,24.27599 -46.1338,48.4257 -76.6405,62.572 -52.0888,24.1542 -134.6768,43.2712 -206.082,47.7027 -14.9117,0.9254 -51.8413,1.1371 -64.5,0.3697 z M 49.734006,590.5084 c 1.5623,-0.8079 4.727,-3.8382 7.0327,-6.734 8.0056,-10.0546 13.0105,-11.3147 19.0324,-4.7917 l 3.6978,4.0053 4.216,-6.0103 c 8.3224,-11.8644 14.0342,-27.5132 14.0665,-38.5385 0.046,-15.83249 -13.9602,-22.67179 -30.1292,-14.71179 -7.5825,3.7329 -18.2396,14.29969 -23.6768,23.47609 -7.7107,13.0136 -11.056,29.571 -7.7328,38.2728 0.9437,2.4708 2.4667,4.9306 3.3846,5.4663 2.451,1.4302 6.8705,1.2404 10.1088,-0.4342 z M 160.19531,578.2 c 12.1531,-8.8023 14.9269,-14.2227 7.2782,-14.2227 -4.2277,0 -9.2549,3.32 -12.917,8.5306 -2.7782,3.9529 -4.85,11.495 -3.1431,11.4421 0.4844,-0.015 4.4363,-2.6025 8.7819,-5.75 z M 18.805006,556.4903 c -1.5659,-1.8868 -0.5587,-6.0888 1.6638,-6.9416 1.0407,-0.3994 2.4604,0.1192 3.6885,1.3473 1.6934,1.6934 1.8207,2.3825 0.8382,4.5389 -1.2909,2.8331 -4.2907,3.3445 -6.1905,1.0554 z"
       id="path3413"
       inkscape:connector-curvature="0"
       sodipodi:nodetypes="cscsssssssssssssssssssssssssssssscssssssscccsssssscscssccscssccccsscsccsscscsscsssscsssssssccccccsscsssccssssccssssssccccssscscscsccsscsssssssssssssssssssssssssssssssssssssssssssssccssccscssccsssscsscscs"
       inkscape:export-xdpi="90"
       inkscape:export-ydpi="90" />
  </g>
</svg>
