<?xml version="1.0" encoding="UTF-8" standalone="no"?>
<!-- Created with Inkscape (http://www.inkscape.org/) -->

<svg
   xmlns:dc="http://purl.org/dc/elements/1.1/"
   xmlns:cc="http://creativecommons.org/ns#"
   xmlns:rdf="http://www.w3.org/1999/02/22-rdf-syntax-ns#"
   xmlns:svg="http://www.w3.org/2000/svg"
   xmlns="http://www.w3.org/2000/svg"
   xmlns:sodipodi="http://sodipodi.sourceforge.net/DTD/sodipodi-0.dtd"
   xmlns:inkscape="http://www.inkscape.org/namespaces/inkscape"
   width="210mm"
   height="297mm"
   viewBox="0 0 744.09448819 1052.3622047"
   id="svg2"
   version="1.1"
   inkscape:version="0.91 r13725"
   sodipodi:docname="logo_hand_bw.svg">
  <defs
     id="defs4" />
  <sodipodi:namedview
     id="base"
     pagecolor="#ffffff"
     bordercolor="#666666"
     borderopacity="1.0"
     inkscape:pageopacity="0.0"
     inkscape:pageshadow="2"
     inkscape:zoom="0.24748738"
     inkscape:cx="-1090.7241"
     inkscape:cy="590.15182"
     inkscape:document-units="px"
     inkscape:current-layer="layer1"
     showgrid="false"
     inkscape:window-width="1865"
     inkscape:window-height="700"
     inkscape:window-x="47"
     inkscape:window-y="431"
     inkscape:window-maximized="0" />
  <metadata
     id="metadata7">
    <rdf:RDF>
      <cc:Work
         rdf:about="">
        <dc:format>image/svg+xml</dc:format>
        <dc:type
           rdf:resource="http://purl.org/dc/dcmitype/StillImage" />
        <dc:title></dc:title>
      </cc:Work>
    </rdf:RDF>
  </metadata>
  <g
     inkscape:label="Layer 1"
     inkscape:groupmode="layer"
     id="layer1">
    <path
       style="fill:#000000"
       d="m 1140.2788,513.4453 c -48.2828,-2.9271 -78.588,-6.8767 -182.99996,-23.85 -129.339,-21.0255 -143.5595,-22.777 -185,-22.7868 -35.2542,-0.01 -53.06059,2.4949 -98.66349,13.8701 -67.8943,16.9354 -108.6906,23.0333 -176.7331,26.4162 -26.2221,1.3037 -113.3929,1.308 -140.6034,0.01 -59.1718,-2.8293 -87.5771,-6.4032 -151,-18.9986 -72.3363,-14.3656 -103.5704,-17.7596 -153.499997,-16.68 -29.2585,0.6327 -36.3363,1.1752 -81.5,6.2465 -36.4713,4.0953 -56.4438,5.134 -68.9002,3.5831 -8.458603,-1.0531 -29.288103,-6.3961 -45.617803,-11.7014 -13.7645,-4.4719 -23.4075,-2.6134 -35.0253,6.7507 -10.3175,8.3159 -12.9055,9.8068 -17.0237,9.8068 -2.901,0 -4.2731,-0.6169 -5.8604,-2.6349 -3.1163,-3.9617 -2.5495,-7.7854 2.9353,-19.8036 2.7457,-6.0161 4.9881,-10.9661 4.9833,-11 -0.01,-0.034 -5.36,-0.2015 -11.9004,-0.3726 -11.4225,-0.2989 -11.9549,-0.2211 -13.4913,1.9725 -0.8797,1.256 -1.5995,2.9137 -1.5995,3.6838 0,0.7701 2.925,4.1985 6.5,7.6186 5.7443,5.4954 6.5,6.6554 6.5,9.9773 0,2.9415 -0.7394,4.4983 -3.4,7.1589 -4.4599,4.4599 -7.7902,4.4364 -14.1708,-0.1 -2.7075,-1.925 -5.6986,-3.5 -6.6468,-3.5 -0.9481,0 -3.7283,1.4128 -6.1781,3.1396 -3.0513,2.1507 -6.0064,3.2887 -9.3827,3.6131 -4.5957,0.4416 -5.1697,0.2326 -8.4971,-3.0948 l -3.5684,-3.5685 -2.5306,1.9905 c -9.6472,7.5885 -19.6255,6.705 -19.6255,-1.7378 l 0,-3.3479 -3.5235,3.9001 c -8.6638,9.5899 -19.4765,8.6907 -19.4765,-1.6197 l 0,-3.2804 -3.6748,4.0677 c -7.3048,8.0854 -12.729,8.994 -18.2288,3.0535 l -3.5964,-3.8847 -4.9012,4.3218 c -2.6957,2.377 -7.8707,5.7909 -11.5,7.5864 -5.6414,2.791 -7.9192,3.3243 -15.6997,3.6756 -10.1338,0.4577 -14.906,-0.9687 -21.2895,-6.3633 -4.2264,-3.5717 -9.1078,-13.6546 -9.1088,-18.8152 l -8e-4,-3.8639 -4.0404,6.0505 c -5.2072,7.7978 -13.6729,15.4991 -21.2324,19.3151 -9.5134,4.8023 -16.6847,5.8557 -39.9949,5.8746 -21.3831,0.017 -25.7323,-0.387 -25.7323,-2.3927 0,-0.8534 6.4646,-1.1577 24.25,-1.1416 26.0484,0.024 29.9088,-0.546 40.7951,-6.019 9.9369,-4.9957 21.1625,-18.2451 26.4169,-31.1792 1.2914,-3.1789 3.0657,-5.9253 3.943,-6.1031 1.9771,-0.4008 1.9757,-0.2243 -0.061,8.1696 -3.8838,16.0062 3.6363,29.4917 18.2723,32.7671 10.3477,2.3158 22.9625,-1.7784 33.2748,-10.7994 2.8099,-2.458 5.1089,-4.9272 5.1089,-5.4872 0,-0.5599 -0.9306,-2.325 -2.0681,-3.9224 -3.5519,-4.9882 -6.7477,-4.0666 -13.9329,4.018 -8.62,9.699 -14.3352,12.0236 -21.0389,8.557 -7.6771,-3.97 -9.679,-18.8905 -4.5591,-33.9794 5.7967,-17.0833 18.8676,-33.4943 31.8504,-39.9894 5.831,-2.9171 8.0989,-3.5106 13.4151,-3.5106 6.5574,0 12.3015,1.757 15.6533,4.7881 11.2164,10.1431 6.4398,37.3977 -10.4823,59.8109 -3.625,4.8013 -3.9941,5.7619 -3.0284,7.8815 0.6049,1.3275 2.211,3.1418 3.5692,4.0317 2.2367,1.4656 2.7496,1.473 5.4449,0.079 4.286,-2.2164 11.1664,-10.4711 17.0372,-20.4405 2.802,-4.758 5.508,-9.3259 6.0135,-10.1509 0.6466,-1.0554 1.2457,-1.1891 2.0214,-0.4511 0.7951,0.7564 -0.431,4.3815 -4.3964,12.9988 -3.0244,6.5724 -5.4989,12.7675 -5.4989,13.7668 0,5.6105 4.8476,7.3543 10.0822,3.6269 3.7593,-2.6768 10.478,-11.5201 15.9104,-20.9414 7.1538,-12.4068 7.0885,-12.3189 8.2745,-11.1329 0.7745,0.7745 -0.5695,4.5306 -4.7419,13.2519 -6.0535,12.6532 -7.2936,18.2919 -4.43,20.1439 2.1756,1.407 5.5567,0.4029 11.1751,-3.3185 3.7155,-2.4611 4.7297,-3.717 4.7297,-5.8571 0,-8.8583 6.4247,-19.1781 14.3184,-22.9994 7.7777,-3.7651 13.6816,-1.8698 13.6816,4.3921 0,4.4423 -2.8158,7.649 -13.1324,14.9549 -4.6022,3.2592 -8.772,6.2715 -9.2663,6.6941 -0.5127,0.4384 -0.1807,1.8639 0.7731,3.3197 2.6004,3.9687 8.8267,3.58 15.1964,-0.9487 2.7075,-1.925 5.8862,-3.5 7.0638,-3.5 1.1775,0 4.4306,1.575 7.2291,3.5 5.6786,3.9062 9.0187,4.3924 11.4813,1.6713 3.3138,-3.6617 2.1453,-7.2247 -4.3408,-13.2359 -5.289,-4.9018 -6.0042,-6.0129 -6.0042,-9.327 0,-2.8271 0.7284,-4.4906 2.9305,-6.6928 l 2.9305,-2.9305 12.9831,0.6571 12.9831,0.6571 4.0976,-8.1497 c 2.2536,-4.4823 4.5159,-8.1496 5.0273,-8.1496 2.202,0 1.9203,2.3099 -0.9831,8.0614 -1.705,3.3776 -2.9393,6.3017 -2.7429,6.498 0.1964,0.1964 3.0384,-0.2698 6.3155,-1.036 5.746,-1.3434 8.3885,-0.8374 7.038,1.3478 -0.3554,0.575 -4.1978,1.8087 -8.5387,2.7415 l -7.8925,1.696 -5.0742,10.8179 c -5.5425,11.8161 -6.4202,17.0827 -3.1397,18.8384 2.8094,1.5035 6.1562,-0.071 14.6165,-6.8772 4.0068,-3.2233 9.9095,-7.1492 13.1171,-8.7242 5.0292,-2.4695 7.0018,-2.8636 14.3319,-2.8636 5.9263,0 9.5682,0.5122 12.028,1.6916 1.9404,0.9303 11.6621,3.9722 21.6038,6.7596 28.329403,7.943 38.158503,8.2353 87.868203,2.6123 56.605,-6.403 87.2427,-8.057 121,-6.5324 37.879797,1.7108 59.351897,4.6163 114.499997,15.4935 56.7099,11.1853 73.6164,13.8076 109,16.907 63.4779,5.5602 157.7911,5.994 220,1.0118 48.2678,-3.8657 82.1988,-9.3948 129.5,-21.1022 56.5965,-14.008 70.2086,-16.2494 103.49999,-17.0422 43.4364,-1.0343 64.7108,1.4417 195,22.6954 110.51026,18.0272 140.48086,21.8441 189.17256,24.0919 46.9756,2.1687 98.4098,-2.4403 151.8798,-13.6098 47.056,-9.8296 94.9659,-25.6544 121.7591,-40.2173 26.3507,-14.3225 48.8835,-33.4713 62.8644,-53.4235 3.0198,-4.3096 6.1281,-7.8357 6.9073,-7.8357 2.1051,0 1.7697,0.9018 -2.8607,7.692 -16.5544,24.276 -46.1338,48.4257 -76.6405,62.572 -52.0888,24.1542 -134.6768,43.2712 -206.082,47.7027 -14.9117,0.9254 -51.8413,1.1371 -64.5,0.3697 z M -358.28135,478.64 c 1.5623,-0.8079 4.727,-3.8382 7.0327,-6.734 8.0056,-10.0546 13.0105,-11.3147 19.0324,-4.7917 l 3.6978,4.0053 4.216,-6.0103 c 8.3224,-11.8644 14.0342,-27.5132 14.0665,-38.5385 0.046,-15.8325 -13.9602,-22.6718 -30.1292,-14.7118 -7.5825,3.7329 -18.2396,14.2997 -23.6768,23.4761 -7.7107,13.0136 -11.056,29.571 -7.7328,38.2728 0.9437,2.4708 2.4667,4.9306 3.3846,5.4663 2.451,1.4302 6.8705,1.2404 10.1088,-0.4342 z m 110.4613,-12.3084 c 12.1531,-8.8023 14.9269,-14.2227 7.2782,-14.2227 -4.2277,0 -9.2549,3.32 -12.917,8.5306 -2.7782,3.9529 -4.85,11.495 -3.1431,11.4421 0.4844,-0.015 4.4363,-2.6025 8.7819,-5.75 z m -141.3903,-21.7097 c -1.5659,-1.8868 -0.5587,-6.0888 1.6638,-6.9416 1.0407,-0.3994 2.4604,0.1192 3.6885,1.3473 1.6934,1.6934 1.8207,2.3825 0.8382,4.5389 -1.2909,2.8331 -4.2907,3.3445 -6.1905,1.0554 z"
       id="path3413"
       inkscape:connector-curvature="0" />
  </g>
</svg>
