<?xml version="1.0" encoding="utf-8"?>
<!-- Generator: Adobe Illustrator 19.2.0, SVG Export Plug-In . SVG Version: 6.00 Build 0)  -->
<svg version="1.1" id="Слой_1" xmlns="http://www.w3.org/2000/svg" xmlns:xlink="http://www.w3.org/1999/xlink" x="0px" y="0px"
	 viewBox="0 0 373 910" style="enable-background:new 0 0 373 910;" xml:space="preserve">
<style type="text/css">
	.st0{fill:#4590AF;}
</style>
<g>
	<g transform="translate(0.000000,512.000000) scale(0.100000,-0.100000)">
		<path class="st0" d="M2162.4,4858.8c0.9-141.9,8.5-306.3,18.2-365.9c29.5-186.9,136.8-328.1,333.1-438l102.4-56.3l-425.7-2186.7
			L1765.1-372.9l-697.7,134.2L370.8-103.7L178.4-1106.9C-34.3-2215.5-30.7-2170.6,54.3-2432.1c62.7-193.3,134.1-326.6,317.7-596
			c212.3-314.4,442.4-584.7,743.4-874.8l80.3-76.3l143.1,54.2c705,269.3,1235.4,608.8,1506,966.2c143.8,188.7,145,194.6,356,1273.1
			L3396-683.9l-687.5,129.2l-688.3,130.3l422.6,2186.2l423.8,2187.1l91.9,4.4c144.2,7.5,241.8,41.2,368.7,127
			c104.8,70.8,113.7,80.2,168.1,178c61.3,112.6,243.8,542.8,234.4,556.8c-6.3,9.3-1553.1,311.1-1562.4,304.8
			C2164,5117.6,2162.4,4999.5,2162.4,4858.8z M2906.5,4728.8l478.8-93.8l-14.2-41.8c-7.7-23.8-39.6-94.5-71.2-158.3
			c-53.5-109.1-61.7-119.6-129.2-160.2c-95.9-56.3-249.3-80.3-368.4-57.1c-113.2,21.9-245,99.1-313.7,183.2
			c-42.4,52.8-52.3,74.9-58.5,141.9c-10,100.1-15.6,269.2-7.5,274.7C2426.1,4819.8,2643.1,4779.8,2906.5,4728.8z M1584.3-1310.5
			l-134.2-692.6l126.8-24.6l126.8-24.6l134.2,692.6l134.2,692.6l556-107.7c306.3-59.3,558.8-114.3,562.4-122.1
			c2.4-8.5-71.2-399.2-165.2-867.8c-185-928.7-187-933.4-335.2-1103.1c-125.4-145.7-230.9-230.6-496.5-399.8
			c-137.4-87.7-307.5-187.4-378.7-220.1C1477.9-3598.6,1292.1-3675,1266-3674c-28.9,2.6-186.1,162.6-396.1,405.7
			C691-3063.5,430.6-2678,355.6-2506.6c-65.6,147.3-97,256.6-105,361.5c-4.2,46.4,55.4,385,160.2,910.3L578-397.8l570.8-109.7
			l569.7-110.4L1584.3-1310.5z"/>
	</g>
</g>
</svg>
